<svg width="326" height="145" viewBox="0 0 326 145" fill="none" xmlns="http://www.w3.org/2000/svg">
<g opacity="0.12">
<path d="M50 128.514L50 0.513728" stroke="white" stroke-dasharray="4 4"/>
<path d="M107 128.514L107 0.513728" stroke="white" stroke-dasharray="4 4"/>
<path d="M164 128.514L164 0.513728" stroke="white" stroke-dasharray="4 4"/>
<path d="M221 128.514L221 0.513728" stroke="white" stroke-dasharray="4 4"/>
<path d="M278 128.514V0.513728" stroke="white" stroke-dasharray="4 4"/>
</g>
<rect x="108" y="42.5137" width="24" height="56" transform="rotate(-90 108 42.5137)" fill="white"/>
<rect x="212" y="42.5137" width="24" height="81" transform="rotate(-90 212 42.5137)" fill="white"/>
<rect y="112.514" width="24" height="164" transform="rotate(-90 0 112.514)" fill="white"/>
<rect x="260" y="112.514" width="24" height="66" transform="rotate(-90 260 112.514)" fill="white"/>
<rect x="50" y="76.5137" width="24" height="174" transform="rotate(-90 50 76.5137)" fill="url(#paint0_linear_4630_741)"/>
<rect x="250" y="76.5137" width="24" height="43" transform="rotate(-90 250 76.5137)" fill="url(#paint1_linear_4630_741)"/>
<rect y="0.513733" width="326" height="4" fill="#80EE64"/>
<rect y="124.514" width="326" height="4" fill="#80EE64"/>
<rect x="140" y="81.5137" width="62" height="62" rx="31" fill="url(#paint2_linear_4630_741)"/>
<rect x="140" y="81.5137" width="62" height="62" rx="31" stroke="url(#paint3_linear_4630_741)" stroke-width="2"/>
<path d="M168.392 114.514H158.912V111.61H162.416V103.258C161.576 103.714 160.664 104.122 159.464 104.554L158.384 101.818L163.76 100.114H165.68V111.61H168.392V114.514ZM176.095 102.778C174.007 102.778 173.071 104.386 173.071 107.266C173.071 110.146 174.031 111.898 176.071 111.898C178.183 111.898 179.119 110.146 179.119 107.266C179.119 104.386 178.183 102.778 176.095 102.778ZM176.095 99.7777C180.055 99.7777 182.575 102.37 182.575 107.266C182.575 112.186 180.151 114.85 176.095 114.85C172.039 114.85 169.639 112.186 169.639 107.266C169.639 102.37 172.207 99.7777 176.095 99.7777Z" fill="black"/>
<path d="M161.98 129.514H161.116V126.766L158.296 122.338V122.314H159.256L161.56 125.962L163.84 122.314H164.788V122.338L161.98 126.79V129.514ZM166.796 124.534C165.716 124.534 164.996 125.134 164.864 126.298H168.596C168.536 125.17 167.948 124.534 166.796 124.534ZM166.844 129.646C165.104 129.646 164.012 128.554 164.012 126.742C164.012 124.894 165.176 123.802 166.82 123.802C168.464 123.802 169.376 124.846 169.376 126.394C169.376 126.526 169.376 126.754 169.352 126.982H164.852C164.936 128.206 165.656 128.902 166.844 128.902C167.948 128.902 168.392 128.326 168.596 127.606L169.34 127.822C169.052 128.95 168.224 129.646 166.844 129.646ZM171.867 128.926C173.031 128.926 173.739 128.302 173.739 127.462V127.102H171.891C171.111 127.102 170.679 127.414 170.679 128.002C170.679 128.458 170.991 128.926 171.867 128.926ZM173.739 129.514V128.074H173.727C173.463 129.13 172.671 129.634 171.687 129.634C170.559 129.634 169.863 129.118 169.863 128.074C169.863 127.15 170.499 126.43 171.807 126.43H173.739V126.058C173.739 125.074 173.379 124.534 172.371 124.534C171.483 124.534 171.003 124.954 170.835 125.986L170.043 125.854C170.235 124.51 171.027 123.814 172.395 123.814C173.895 123.814 174.555 124.606 174.555 126.034V129.514H173.739ZM176.439 129.514H175.611V123.934H176.439V125.554H176.463C176.667 124.414 177.231 123.934 178.155 123.934H178.539V124.834H178.083C176.967 124.834 176.439 125.29 176.439 126.454V129.514ZM181.098 129.658C179.418 129.658 178.782 128.866 178.518 127.666L179.298 127.51C179.514 128.326 179.922 128.962 181.11 128.962C181.986 128.962 182.418 128.59 182.43 128.014C182.43 127.486 182.058 127.222 180.786 127.018C179.358 126.766 178.818 126.25 178.818 125.386C178.818 124.462 179.502 123.802 180.834 123.802C182.214 123.802 182.814 124.45 183.09 125.566L182.298 125.758C182.07 124.834 181.65 124.474 180.846 124.474C180.054 124.474 179.634 124.81 179.634 125.338C179.634 125.854 179.982 126.178 181.146 126.358C182.646 126.598 183.246 127.126 183.246 128.002C183.246 128.998 182.55 129.658 181.098 129.658Z" fill="black"/>
<defs>
<linearGradient id="paint0_linear_4630_741" x1="50" y1="76.5137" x2="97.1039" y2="83.0108" gradientUnits="userSpaceOnUse">
<stop stop-color="#C5E658"/>
<stop offset="0.5" stop-color="#35A855"/>
<stop offset="0.78" stop-color="#0A462A"/>
<stop offset="1" stop-color="#011B10"/>
</linearGradient>
<linearGradient id="paint1_linear_4630_741" x1="250" y1="76.5137" x2="286.599" y2="96.9409" gradientUnits="userSpaceOnUse">
<stop stop-color="#C5E658"/>
<stop offset="0.5" stop-color="#35A855"/>
<stop offset="0.78" stop-color="#0A462A"/>
<stop offset="1" stop-color="#011B10"/>
</linearGradient>
<linearGradient id="paint2_linear_4630_741" x1="171" y1="80.5137" x2="171" y2="144.514" gradientUnits="userSpaceOnUse">
<stop stop-color="#E9EFB5"/>
<stop offset="1" stop-color="#80EE64"/>
</linearGradient>
<linearGradient id="paint3_linear_4630_741" x1="139" y1="80.5137" x2="203" y2="144.514" gradientUnits="userSpaceOnUse">
<stop stop-color="#C5E658"/>
<stop offset="0.5" stop-color="#35A855"/>
<stop offset="0.78" stop-color="#0A462A"/>
<stop offset="1" stop-color="#011B10"/>
</linearGradient>
</defs>
</svg>
